<?xml version="1.0" standalone="no"?>
<!DOCTYPE svg PUBLIC "-//W3C//DTD SVG 20010904//EN"
 "http://www.w3.org/TR/2001/REC-SVG-20010904/DTD/svg10.dtd">
<svg version="1.0" xmlns="http://www.w3.org/2000/svg"
 width="947.000000pt" height="947.000000pt" viewBox="0 0 947.000000 947.000000"
 preserveAspectRatio="xMidYMid meet">
<metadata>
Created by potrace 1.14, written by Peter Selinger 2001-2017
</metadata>
<g transform="translate(0.000000,947.000000) scale(0.100000,-0.100000)"
fill="#000000" stroke="none">
<path d="M838 9320 c-2 -8 -4 -831 -3 -1827 l0 -1813 430 -431 c244 -244 441
-434 455 -438 14 -4 366 -7 783 -7 498 1 757 -2 758 -9 6 -53 3 -117 -5 -123
-6 -4 -356 -7 -779 -7 l-767 0 -438 -440 -439 -440 2 -1510 c1 -830 -1 -1516
-3 -1522 -2 -7 -19 -13 -38 -13 l-34 0 0 -305 0 -305 605 0 605 0 0 304 0 305
-37 3 -38 3 0 1255 c0 690 2 1264 4 1275 3 11 76 90 163 175 l159 155 534 0
c407 0 535 -3 535 -12 0 -6 15 -40 33 -74 45 -87 145 -187 228 -227 36 -18 70
-32 75 -32 5 0 9 -193 8 -488 l0 -487 201 -205 201 -205 0 -867 c-1 -574 2
-869 9 -871 9 -3 198 -2 235 2 13 1 15 109 15 926 l0 925 -201 202 -201 203 2
410 c2 226 3 415 4 420 0 6 29 11 68 10 l68 0 0 -378 0 -378 199 -197 200
-197 0 -975 1 -974 128 -1 c81 -1 127 3 128 10 1 5 2 467 3 1025 l2 1015 -201
205 -201 205 2 315 c1 173 2 317 3 320 2 8 125 6 131 -2 3 -4 5 -70 5 -148 0
-77 2 -141 5 -141 19 -4 250 -4 251 1 1 3 2 70 3 150 l1 145 70 0 70 0 0 -150
0 -149 115 -1 c63 -1 122 1 130 4 13 5 15 31 15 151 l0 145 70 0 70 0 1 -320
0 -320 -200 -203 -201 -203 0 -1024 c0 -564 2 -1026 5 -1026 3 -1 60 -2 128
-3 103 -1 122 1 123 14 1 8 2 446 3 972 l1 958 200 200 200 200 0 377 0 378
68 0 c37 0 68 -2 68 -5 1 -3 2 -192 3 -420 l2 -415 -200 -203 -201 -203 0
-924 c0 -509 2 -926 5 -926 18 -4 250 -4 251 1 1 3 2 397 3 875 l2 870 200
197 199 197 0 487 c0 421 2 488 15 494 8 4 42 20 75 36 85 40 182 140 228 235
l35 74 531 0 530 0 163 -160 162 -160 0 -1572 c1 -865 3 -1574 6 -1574 17 -4
250 -4 251 1 1 3 2 735 3 1628 l1 1623 -240 238 -240 238 -572 -1 c-379 -1
-574 2 -576 9 -3 9 -1 110 2 125 1 3 280 5 621 5 l620 0 262 -263 263 -262 0
-1672 0 -1672 128 -1 c70 -1 128 2 128 5 1 3 2 779 4 1725 l2 1720 -341 341
-341 341 -672 -1 c-370 -1 -674 1 -674 4 -7 28 -3 130 6 131 5 1 330 2 720 4
l710 2 365 -364 365 -363 0 -1772 0 -1772 128 -1 c81 -1 127 3 128 10 1 5 2
827 4 1825 l2 1815 -439 440 -438 440 -775 0 c-512 0 -776 3 -778 10 -3 9 -2
90 2 120 1 7 262 10 774 9 l772 -1 440 439 440 438 0 1827 0 1828 -130 0 -130
0 0 -1772 0 -1773 -363 -363 -362 -362 -722 0 -722 0 -1 68 c-1 41 3 67 9 68
6 1 311 2 678 3 l668 1 337 338 338 337 0 1223 0 1222 38 3 37 3 0 355 0 354
-35 0 c-19 0 -36 3 -36 8 -1 4 -2 70 -3 147 l-1 140 -123 0 c-74 0 -126 -4
-130 -10 -4 -5 -7 -71 -7 -145 l0 -135 -64 -3 c-36 -2 -67 1 -70 7 -4 6 -7 71
-6 146 0 74 -2 136 -5 136 -18 4 -242 4 -248 -1 -4 -3 -7 -67 -8 -143 0 -148
-4 -158 -50 -149 l-24 4 0 -355 0 -356 38 -3 37 -3 1 -1065 0 -1065 -163 -165
-162 -165 -530 0 c-411 0 -533 3 -542 13 -7 6 -10 12 -6 12 12 0 -52 110 -91
159 -45 56 -141 126 -201 147 l-46 17 0 161 0 161 -120 1 c-66 0 -125 -1 -130
-3 -7 -2 -10 -57 -10 -148 1 -80 -2 -145 -5 -146 -20 -4 -130 -4 -131 1 -1 3
-3 68 -4 145 -1 77 -3 142 -4 145 -2 9 -239 6 -248 -3 -4 -5 -9 -68 -9 -140
-1 -73 -2 -137 -3 -143 -1 -6 -27 -10 -68 -9 l-68 2 -1 142 c0 96 -4 145 -12
150 -6 4 -65 7 -129 6 l-118 -1 -2 -142 c-1 -78 -4 -145 -6 -149 -3 -4 -34 -8
-69 -8 l-63 0 -3 151 -2 150 -123 -2 c-67 -1 -125 -2 -129 -3 -3 0 -6 -64 -6
-142 0 -77 -3 -143 -6 -147 -4 -3 -33 -6 -66 -7 -48 -1 -60 2 -61 14 -1 9 -3
72 -4 141 -1 69 -3 130 -4 135 -1 13 -235 14 -248 2 -4 -5 -9 -70 -9 -145 -1
-75 -2 -139 -3 -142 0 -3 -31 -5 -68 -5 l-68 0 0 150 0 150 -120 1 c-66 0
-125 -1 -130 -3 -6 -2 -10 -63 -10 -161 l0 -157 -55 -23 c-115 -49 -202 -134
-264 -258 l-35 -69 -531 0 -531 0 -162 165 -163 165 0 1567 c1 1040 -2 1569
-9 1571 -5 2 -64 3 -130 3 l-120 -1 -1 -1625 -1 -1625 241 -241 241 -241 572
1 c503 1 572 0 575 -14 2 -8 4 -40 3 -70 l0 -55 -623 0 -622 0 -263 263 -262
262 0 1673 0 1672 -123 1 c-76 0 -126 -4 -130 -10 -4 -6 -7 -784 -7 -1729 l0
-1717 338 -338 338 -337 677 0 677 0 0 -70 0 -70 -723 0 -722 0 -363 363 -362
362 0 1772 0 1773 -127 0 c-106 1 -127 -2 -130 -15z m7197 -2160 l0 -1171
-265 -262 -265 -263 -620 0 -619 1 -1 68 c-1 41 3 67 9 68 6 1 266 2 578 3
l568 1 237 237 238 238 0 1125 0 1125 70 0 70 0 0 -1170z m-2220 -1133 c112
-23 227 -140 243 -246 8 -51 7 -2037 -1 -2088 -9 -57 -37 -110 -86 -160 -46
-48 -86 -71 -151 -88 -53 -13 -2052 -14 -2110 -1 -80 19 -169 87 -206 157 -39
77 -40 91 -39 1154 l2 1030 25 57 c44 95 135 170 225 184 21 3 39 7 40 7 5 6
2033 -1 2058 -6z m-2554 -1637 c3 -8 5 -40 5 -70 l-1 -55 -678 0 -677 0 -337
-338 -338 -337 -1 -1417 c-1 -780 -2 -1421 -3 -1425 -2 -14 -128 -9 -133 5 -2
6 -4 669 -3 1472 l1 1460 362 360 362 360 718 0 c632 0 718 -1 723 -15z m4
-453 c0 -37 -2 -68 -5 -68 -3 -1 -263 -2 -578 -3 l-572 -1 -238 -238 -237
-237 1 -1312 c0 -722 -2 -1319 -4 -1325 -5 -14 -131 -19 -133 -5 -1 4 -2 620
-3 1370 l-1 1362 265 263 265 263 620 0 620 -1 0 -68z"/>
<path d="M3946 5789 c-116 -40 -206 -134 -245 -258 -8 -23 -10 -276 -8 -810
l2 -776 27 -58 c45 -95 112 -160 208 -202 43 -19 71 -20 820 -20 426 0 789 3
807 7 97 19 198 105 247 208 28 58 31 76 34 175 2 61 2 139 2 175 -1 36 -2 70
-2 75 4 106 0 1153 -3 1184 -3 25 -16 69 -29 98 -48 104 -117 166 -223 202
-60 20 -80 21 -820 20 -734 0 -760 0 -817 -20z"/>
</g>
</svg>
